<svg xmlns="http://www.w3.org/2000/svg" xmlns:xlink="http://www.w3.org/1999/xlink" id="Layer_1" x="0" y="0" version="1.1" viewBox="0 0 63 63" xml:space="preserve" style="enable-background:new 0 0 63 63"><style type="text/css">.st0{fill:#fff}.st1{fill:#dfdfdf}.st2{fill:#ff1c1c}.st3{fill:#df1818}</style><g id="Layer_2_1_"><g id="Pokéball"><g id="Pokéball-2"><g id="Colours"><path id="Down" d="M31.5,41.8c-4.9,0-9.1-3.4-10.1-8.2H4.8C6,47.2,17.4,57.9,31.3,57.9s25.3-10.7,26.5-24.3H41.6 C40.6,38.4,36.4,41.8,31.5,41.8z" class="st0"/><path id="Shadow_Down" d="M37.4,57.2c11-2.6,19.4-12,20.4-23.6h-6.5C50.6,44.1,45.1,53,37.4,57.2z" class="st1"/><path id="Center" d="M37.6,31.5L37.6,31.5c0-0.7-0.1-1.4-0.4-2.1c-1.2-3.2-4.7-4.8-7.8-3.6c-2.4,0.9-4,3.2-4,5.7h0 c0,3.4,2.7,6.1,6.1,6.1C34.9,37.6,37.6,34.9,37.6,31.5z" class="st0"/><path id="Up" d="M31.5,21.2c4.9,0,9.1,3.4,10.1,8.2h16.6C57,15.8,45.6,5.1,31.7,5.1S6.3,15.8,5.2,29.4h16.2 C22.4,24.6,26.6,21.2,31.5,21.2z" class="st2"/><path id="Shadow_Up" d="M51.3,29.4h6.9c-1-11.8-9.7-21.3-21-23.7C45,9.8,50.6,18.8,51.3,29.4z" class="st3"/></g><path id="Line" d="M31.7,5.1c13.9,0,25.3,10.7,26.5,24.3H41.6c-1.2-5.6-6.7-9.2-12.2-8c-4,0.8-7.1,4-8,8H5.2 C6.3,15.8,17.8,5.1,31.7,5.1z M37.2,29.4c0.3,0.7,0.4,1.4,0.4,2.1h0c0,3.4-2.7,6.1-6.1,6.1c-3.4,0-6.1-2.7-6.1-6.1l0,0h0 c0-3.4,2.7-6.1,6.1-6.1C34,25.4,36.3,27,37.2,29.4z M31.3,57.9C17.4,57.9,6,47.3,4.8,33.6h16.6c1.2,5.6,6.7,9.2,12.2,8 c4-0.8,7.1-4,8-8h16.2C56.7,47.2,45.2,57.9,31.3,57.9z M31.5,0C14.1,0,0,14.1,0,31.5S14.1,63,31.5,63S63,48.9,63,31.5 S48.9,0,31.5,0z"/></g></g></g></svg>